<?xml version="1.0" encoding="utf-8"?>
<!-- Generator: Adobe Illustrator 19.2.1, SVG Export Plug-In . SVG Version: 6.00 Build 0)  -->
<!DOCTYPE svg PUBLIC "-//W3C//DTD SVG 1.1//EN" "http://www.w3.org/Graphics/SVG/1.1/DTD/svg11.dtd">
<svg version="1.1" id="Layer_1" xmlns="http://www.w3.org/2000/svg" xmlns:xlink="http://www.w3.org/1999/xlink" x="0px" y="0px"
	 viewBox="0 0 1185.478 360.479" enable-background="new 0 0 1185.478 360.479" xml:space="preserve">
<g>
	<g>
		<g>
			<path fill="#FFFFFF" d="M192.261,303.833h23.202v36.649c-10.248,11.43-24.435,17.143-42.561,17.143
				c-15.173,0-27.908-5.025-38.202-15.074c-10.296-10.049-15.443-22.732-15.443-38.053c0-15.318,5.246-28.102,15.739-38.35
				c10.492-10.245,23.15-15.369,37.979-15.369c14.827,0,27.709,4.877,38.645,14.631l-11.97,17.29
				c-4.632-4.038-8.892-6.821-12.783-8.35c-3.893-1.526-8.104-2.291-12.635-2.291c-8.77,0-16.159,2.981-22.167,8.941
				c-6.01,5.962-9.015,13.817-9.015,23.57c0,9.754,2.882,17.562,8.646,23.424c5.763,5.862,12.635,8.792,20.615,8.792
				s14.63-1.525,19.95-4.581V303.833z"/>
			<path fill="#FFFFFF" d="M274.53,296.443c-6.602,0-11.527,2.342-14.778,7.02c-3.251,4.681-4.876,10.862-4.876,18.547v34.433
				h-22.167v-79.506h22.167v10.492c2.856-3.251,6.428-6.008,10.714-8.275c4.286-2.265,8.645-3.447,13.079-3.547l0.148,20.837H274.53
				z"/>
			<path fill="#FFFFFF" d="M369.242,316.689c0,11.527-3.99,21.231-11.97,29.112c-7.98,7.884-18.006,11.823-30.073,11.823
				c-12.069,0-22.093-3.939-30.073-11.823c-7.98-7.881-11.97-17.585-11.97-29.112s3.99-21.255,11.97-29.187
				c7.98-7.93,18.004-11.896,30.073-11.896c12.067,0,22.093,3.967,30.073,11.896C365.252,295.434,369.242,305.162,369.242,316.689z
				 M307.47,316.689c0,6.502,1.847,11.8,5.542,15.887c3.695,4.089,8.424,6.133,14.187,6.133c5.764,0,10.493-2.044,14.187-6.133
				c3.694-4.087,5.542-9.385,5.542-15.887s-1.848-11.822-5.542-15.96s-8.423-6.207-14.187-6.207c-5.763,0-10.492,2.069-14.187,6.207
				C309.317,304.867,307.47,310.187,307.47,316.689z"/>
			<path fill="#FFFFFF" d="M434.381,319.793v-42.856h22.315v79.506h-22.315V345.95c-5.519,7.783-12.635,11.675-21.354,11.675
				s-16.034-2.734-21.945-8.202s-8.867-13.57-8.867-24.31v-48.177h22.314v43.3c0,12.217,4.482,18.324,13.448,18.324
				c4.433,0,8.276-1.6,11.527-4.803C432.756,330.557,434.381,325.902,434.381,319.793z"/>
			<path fill="#FFFFFF" d="M497.232,312.108v44.334h-22.167v-79.506h22.167v8.867c6.699-6.798,14.235-10.197,22.61-10.197
				c8.373,0,15.393,2.956,21.059,8.867c5.665,5.911,8.498,13.794,8.498,23.645v48.324h-22.167v-44.925
				c0-12.215-4.484-18.325-13.448-18.325c-4.434,0-8.301,1.603-11.601,4.803C498.881,301.198,497.232,305.901,497.232,312.108z"/>
			<path fill="#FFFFFF" d="M598.711,357.625c-9.409,0-17.807-3.99-25.196-11.971s-11.084-17.881-11.084-29.704
				c0-11.822,3.596-21.501,10.788-29.038c7.19-7.537,15.614-11.306,25.27-11.306c9.654,0,17.535,3.399,23.646,10.197V246.79h22.167
				v109.652h-22.167V345.95C615.928,353.733,608.118,357.625,598.711,357.625z M584.747,316.836c0,6.405,1.92,11.652,5.763,15.739
				c3.842,4.089,8.324,6.133,13.447,6.133c5.122,0,9.481-2.044,13.079-6.133c3.595-4.087,5.394-9.359,5.394-15.812
				c0-6.452-1.799-11.823-5.394-16.108c-3.598-4.285-8.006-6.428-13.227-6.428c-5.223,0-9.705,2.168-13.448,6.502
				C586.617,305.065,584.747,310.434,584.747,316.836z"/>
			<path fill="#FFFFFF" d="M713.416,336.048c11.328,0,20.59-4.482,27.783-13.448l14.777,15.222
				c-11.726,13.203-25.543,19.803-41.452,19.803c-15.912,0-29.016-5.025-39.31-15.074c-10.296-10.049-15.443-22.732-15.443-38.053
				c0-15.318,5.247-28.102,15.739-38.35c10.492-10.245,23.323-15.369,38.496-15.369c16.944,0,31.131,6.454,42.562,19.359
				l-14.335,16.256c-7.292-9.062-16.355-13.596-27.191-13.596c-8.671,0-16.085,2.833-22.241,8.497
				c-6.158,5.667-9.236,13.301-9.236,22.906s2.905,17.315,8.719,23.128C698.096,333.143,705.141,336.048,713.416,336.048z"/>
			<path fill="#FFFFFF" d="M847.127,316.689c0,11.527-3.99,21.231-11.97,29.112c-7.98,7.884-18.007,11.823-30.073,11.823
				c-12.07,0-22.094-3.939-30.073-11.823c-7.98-7.881-11.971-17.585-11.971-29.112s3.99-21.255,11.971-29.187
				c7.979-7.93,18.003-11.896,30.073-11.896c12.066,0,22.093,3.967,30.073,11.896C843.137,295.434,847.127,305.162,847.127,316.689z
				 M785.354,316.689c0,6.502,1.848,11.8,5.542,15.887c3.694,4.089,8.424,6.133,14.188,6.133c5.763,0,10.492-2.044,14.187-6.133
				c3.694-4.087,5.542-9.385,5.542-15.887s-1.848-11.822-5.542-15.96s-8.424-6.207-14.187-6.207c-5.764,0-10.493,2.069-14.188,6.207
				S785.354,310.187,785.354,316.689z"/>
			<path fill="#FFFFFF" d="M882.977,312.108v44.334H860.81v-79.506h22.167v8.867c6.699-6.798,14.235-10.197,22.61-10.197
				c8.373,0,15.393,2.956,21.059,8.867c5.665,5.911,8.498,13.794,8.498,23.645v48.324h-22.167v-44.925
				c0-12.215-4.484-18.325-13.448-18.325c-4.434,0-8.301,1.603-11.601,4.803C884.626,301.198,882.977,305.901,882.977,312.108z"/>
			<path fill="#FFFFFF" d="M976.905,292.897v35.614c0,3.055,0.787,5.445,2.364,7.168c1.575,1.725,3.447,2.586,5.615,2.586
				c4.139,0,7.634-1.87,10.493-5.616l8.275,15.518c-6.897,6.306-14.164,9.458-21.798,9.458c-7.636,0-14.09-2.513-19.359-7.537
				c-5.271-5.024-7.906-11.871-7.906-20.542v-36.648h-9.31v-15.961h9.31v-23.792h22.315v23.792h19.211v15.961H976.905z"/>
			<path fill="#FFFFFF" d="M1054.725,296.443c-6.602,0-11.527,2.342-14.778,7.02c-3.251,4.681-4.877,10.862-4.877,18.547v34.433
				h-22.167v-79.506h22.167v10.492c2.856-3.251,6.429-6.008,10.715-8.275c4.285-2.265,8.645-3.447,13.078-3.547l0.147,20.837
				H1054.725z"/>
			<path fill="#FFFFFF" d="M1149.436,316.689c0,11.527-3.99,21.231-11.97,29.112c-7.98,7.884-18.007,11.823-30.073,11.823
				c-12.07,0-22.094-3.939-30.073-11.823c-7.98-7.881-11.971-17.585-11.971-29.112s3.99-21.255,11.971-29.187
				c7.979-7.93,18.003-11.896,30.073-11.896c12.066,0,22.093,3.967,30.073,11.896
				C1145.445,295.434,1149.436,305.162,1149.436,316.689z M1087.663,316.689c0,6.502,1.848,11.8,5.542,15.887
				c3.694,4.089,8.424,6.133,14.188,6.133c5.763,0,10.492-2.044,14.187-6.133c3.694-4.087,5.542-9.385,5.542-15.887
				s-1.848-11.822-5.542-15.96s-8.424-6.207-14.187-6.207c-5.764,0-10.493,2.069-14.188,6.207S1087.663,310.187,1087.663,316.689z"
				/>
			<path fill="#FFFFFF" d="M1185.478,356.442h-22.167V246.79h22.167V356.442z"/>
		</g>
		<path fill="#FFFFFF" d="M108.838,345.539l-10.141-10.141c6.506-8.876,9.774-19.294,9.774-31.27
			c0-15.17-5.223-27.856-15.665-38.053c-10.444-10.197-23.301-15.296-38.571-15.296c-15.272,0-28.129,5.099-38.571,15.296
			C5.221,276.271,0,288.958,0,304.127c0,15.173,5.221,27.856,15.665,38.054c10.442,10.197,23.299,15.295,38.571,15.295
			c10.86,0,20.492-2.592,28.911-7.749l10.752,10.752L108.838,345.539z M54.31,337.378c-8.622,0-15.887-3.226-21.798-9.68
			c-5.911-6.452-8.867-14.284-8.867-23.497c0-9.211,2.956-17.068,8.867-23.571c5.911-6.502,13.176-9.753,21.798-9.753
			c8.62,0,15.886,3.251,21.797,9.753c5.911,6.503,8.867,14.36,8.867,23.571c0,5.302-0.984,10.143-2.942,14.531l-8.579-8.579
			l-14.94,14.94l9.165,9.165C63.657,336.336,59.202,337.378,54.31,337.378z"/>
	</g>
	<g>
		<g>
			<path fill="#FFFFFF" d="M639.37,203h-83.567c-32.928,0-59.716-26.788-59.716-59.716V59.716C496.086,26.789,522.874,0,555.802,0
				h83.567c32.928,0,59.716,26.789,59.716,59.716v83.567C699.086,176.211,672.297,203,639.37,203z M555.802,3
				c-31.273,0-56.716,25.443-56.716,56.716v83.567c0,31.273,25.443,56.716,56.716,56.716h83.567
				c31.273,0,56.716-25.442,56.716-56.716V59.716C696.086,28.443,670.643,3,639.37,3H555.802z"/>
		</g>
		<path fill="#FFFFFF" d="M654.149,142.971l-10.179-10.179c5.993-8.679,9.511-19.197,9.511-30.54h-0.044
			c0-27.905-21.19-50.857-48.345-53.617v23.318c15.334,2.768,26.72,16.891,25.137,33.349c-0.364,3.787-1.443,7.384-3.088,10.66
			l-11.846-11.846l-16.406,16.406l10.812,10.812c-2.239,0.785-4.59,1.32-7.02,1.557c-16.415,1.601-30.514-9.699-33.36-24.959
			h-23.332c2.84,27.071,25.752,48.171,53.597,48.171v0.044c10.015,0,19.385-2.745,27.417-7.511l10.74,10.74L654.149,142.971z"/>
		<path fill="#5ECBF1" d="M593.833,33.064c-0.129,0-0.377,0.018-0.385,0.019c-33.409,2.944-60.044,29.582-62.971,63.031
			c-0.002,0.023-0.021,0.329-0.022,0.358c-0.001,0.021-0.009,0.19-0.009,0.264c0,2.159,1.75,3.909,3.909,3.909
			c2.097,0,3.808-1.651,3.904-3.723l-0.002-0.001c2.546-29.719,26.159-53.412,55.822-56.044l0,0
			c1.981-0.125,3.565-1.728,3.658-3.717c0.003-0.062,0.004-0.123,0.004-0.186C597.742,34.814,595.992,33.064,593.833,33.064z"/>
		<path fill="#5ECBF1" d="M593.837,48.604c-0.14,0-0.278,0.01-0.414,0.024c-0.002,0-0.056,0.005-0.061,0.006
			c-25.063,2.893-45.007,23.272-47.393,47.639c0,0-0.03,0.32-0.03,0.486c0,2.159,1.75,3.909,3.909,3.909
			c2.097,0,3.808-1.651,3.904-3.723c0.001-0.021,0.001-0.042,0.001-0.063c2.451-21.156,19.198-37.949,40.325-40.463l0-0.019
			c1.982-0.124,3.569-1.709,3.662-3.7c0.003-0.061,0.004-0.123,0.004-0.185C597.746,50.354,595.996,48.604,593.837,48.604z"/>
		<path fill="#5ECBF1" d="M593.833,64.208c-0.247,0-0.494,0.024-0.729,0.068c-16.101,2.732-28.852,15.534-31.506,31.664
			c-0.009,0.043-0.015,0.086-0.023,0.129c-0.042,0.236-0.071,0.562-0.071,0.704c0,2.159,1.75,3.909,3.909,3.909
			c0.155,0,0.308-0.009,0.458-0.027c1.826-0.213,3.268-1.686,3.434-3.526c0.005-0.057,0.031-0.316,0.038-0.357
			c2.255-12.578,12.164-22.477,24.735-24.752c0,0,0.142-0.013,0.212-0.022c1.882-0.22,3.356-1.777,3.446-3.697
			c0.003-0.062,0.004-0.123,0.004-0.186C597.742,65.958,595.992,64.208,593.833,64.208z"/>
	</g>
</g>
</svg>
