<?xml version="1.0" encoding="utf-8"?>
<!-- Generator: Adobe Illustrator 19.2.1, SVG Export Plug-In . SVG Version: 6.00 Build 0)  -->
<!DOCTYPE svg PUBLIC "-//W3C//DTD SVG 1.1//EN" "http://www.w3.org/Graphics/SVG/1.1/DTD/svg11.dtd">
<svg version="1.1" id="Layer_1" xmlns="http://www.w3.org/2000/svg" xmlns:xlink="http://www.w3.org/1999/xlink" x="0px" y="0px"
	 viewBox="0 0 48 48" enable-background="new 0 0 48 48" xml:space="preserve">
<g id="Layer_1_1_">
</g>
<g id="MASK" display="none">
	<rect x="4" y="4" display="inline" opacity="0.29" fill="#FF0000" enable-background="new    " width="40" height="40"/>
</g>
<g id="IC_x5F_FRAME" display="none">
	<g display="inline">
		<circle cx="35.1" cy="12.9" r="2"/>
		<circle cx="12.9" cy="12.9" r="2"/>
		<circle cx="35.1" cy="35.1" r="2"/>
		<circle cx="12.9" cy="35.1" r="2"/>
		<path d="M35.1,21.7c-4.9,0-8.9-4-8.9-8.9s4-8.9,8.9-8.9S44,8,44,12.9S40,21.7,35.1,21.7z M35.1,7c-3.2,0-5.9,2.6-5.9,5.9
			s2.6,5.9,5.9,5.9s5.9-2.6,5.9-5.9S38.4,7,35.1,7z"/>
		<path d="M12.9,21.7c-4.9,0-8.9-4-8.9-8.9S8,4,12.9,4s8.9,4,8.9,8.9S17.7,21.7,12.9,21.7z M12.9,7C9.6,7,7,9.6,7,12.9
			s2.6,5.9,5.9,5.9s5.9-2.6,5.9-5.9S16.1,7,12.9,7z"/>
		<path d="M35.1,44c-4.9,0-8.9-4-8.9-8.9s4-8.9,8.9-8.9s8.9,4,8.9,8.9S40,44,35.1,44z M35.1,29.3c-3.2,0-5.9,2.6-5.9,5.9
			s2.6,5.9,5.9,5.9s5.9-2.6,5.9-5.9S38.4,29.3,35.1,29.3z"/>
		<path d="M12.9,44C8,44,4,40,4,35.1s4-8.9,8.9-8.9s8.9,4,8.9,8.9S17.7,44,12.9,44z M12.9,29.3c-3.2,0-5.9,2.6-5.9,5.9
			S9.6,41,12.9,41s5.9-2.6,5.9-5.9S16.1,29.3,12.9,29.3z"/>
		<circle cx="24" cy="24" r="5.3"/>
	</g>
</g>
<g id="IC_x5F_FIRMWARE">
	<g>
		<path fill="#FFFFFF" d="M23.6,30.7L23.6,30.7c0.3,0.3,0.7,0.4,1.1,0.4s0.8-0.2,1.1-0.4l9.2-8.8c0.6-0.6,0.7-1.6,0.1-2.3
			c-0.3-0.3-0.7-0.5-1.1-0.5c-0.4,0-0.9,0.1-1.2,0.4l-6.5,6.1V5.9c0-0.9-0.8-1.6-1.6-1.6c-0.8,0-1.6,0.8-1.6,1.6v19.9l-6.4-6.1
			c-0.4-0.3-0.9-0.5-1.3-0.5c-0.6,0.1-1.2,0.5-1.3,1.1c-0.2,0.6,0,1.3,0.4,1.7L23.6,30.7z"/>
		<path fill="#FFFFFF" d="M42.4,34.3H5.6c-1,0-1.6,0.8-1.6,1.6c0,0.4,0.2,0.8,0.5,1.1s0.7,0.5,1.1,0.5h36.8c0.8,0,1.6-0.8,1.6-1.6
			C44,35,43.2,34.3,42.4,34.3z"/>
		<g>
			<path fill="#FFFFFF" d="M5.4,40.6v1.8c0,1,0.8,1.6,1.6,1.6c0.4,0,0.8-0.2,1.1-0.5s0.5-0.7,0.5-1.1v-1.8C8.6,39.8,7.8,39,7,39
				S5.4,39.8,5.4,40.6z"/>
			<path fill="#FFFFFF" d="M12.2,40.6v1.8c0,1,0.8,1.6,1.6,1.6c0.4,0,0.8-0.2,1.1-0.5s0.5-0.7,0.5-1.1v-1.8c0-0.8-0.8-1.6-1.6-1.6
				S12.2,39.8,12.2,40.6z"/>
			<path fill="#FFFFFF" d="M19,40.6v1.8c0,1,0.8,1.6,1.6,1.6c0.4,0,0.8-0.2,1.1-0.5c0.3-0.3,0.5-0.7,0.5-1.1v-1.8
				c0-0.8-0.8-1.6-1.6-1.6S19,39.8,19,40.6z"/>
			<path fill="#FFFFFF" d="M25.8,40.6v1.8c0,1,0.8,1.6,1.6,1.6c0.4,0,0.8-0.2,1.1-0.5c0.3-0.3,0.5-0.7,0.5-1.1v-1.8
				c0-0.8-0.8-1.6-1.6-1.6C26.5,39,25.8,39.8,25.8,40.6z"/>
			<path fill="#FFFFFF" d="M32.5,40.6v1.8c0,1,0.8,1.6,1.6,1.6c0.4,0,0.8-0.2,1.1-0.5s0.5-0.7,0.5-1.1v-1.8c0-0.8-0.8-1.6-1.6-1.6
				S32.5,39.8,32.5,40.6z"/>
			<path fill="#FFFFFF" d="M39.3,40.6v1.8c0,1,0.8,1.6,1.6,1.6c0.4,0,0.8-0.2,1.1-0.5s0.5-0.7,0.5-1.1v-1.8c0-0.8-0.8-1.6-1.6-1.6
				S39.3,39.7,39.3,40.6z"/>
		</g>
	</g>
</g>
<g id="IC_x5F_FLIGHT_x5F_MODE" display="none">
	<g display="inline">
		<g>
			<path d="M10.6,33.4l1.7-1.7c0.2-0.2,0.3-0.4,0.3-0.7s-0.1-0.5-0.3-0.7l-0.9-0.9c-0.2-0.2-0.4-0.3-0.7-0.3l0,0
				c-0.3,0-0.5,0.1-0.7,0.3l-1.7,1.7l-1.7-1.7c-0.4-0.4-1-0.4-1.4,0l-0.9,0.9c-0.4,0.4-0.4,1,0,1.4L6,33.4l-1.7,1.7
				C4.1,35.3,4,35.5,4,35.8s0.1,0.5,0.3,0.7l0.9,0.9c0.2,0.2,0.5,0.3,0.7,0.3s0.5-0.1,0.7-0.3l1.7-1.7l1.7,1.7c0.4,0.4,1,0.4,1.4,0
				l0.9-0.9c0.2-0.2,0.3-0.4,0.3-0.7s-0.1-0.5-0.3-0.7L10.6,33.4z"/>
			<path d="M42,16.3l1.7-1.7c0.2-0.2,0.3-0.4,0.3-0.7s-0.1-0.5-0.3-0.7l-0.9-0.9c-0.4-0.4-1-0.4-1.4,0L39.7,14L38,12.3
				c-0.4-0.4-1-0.4-1.4,0l-0.9,0.9c-0.2,0.2-0.3,0.4-0.3,0.7s0.1,0.5,0.3,0.7l1.7,1.7L35.7,18c-0.2,0.2-0.3,0.4-0.3,0.7
				s0.1,0.5,0.3,0.7l0.9,0.9c0.2,0.2,0.5,0.3,0.7,0.3s0.5-0.1,0.7-0.3l1.7-1.7l1.7,1.7c0.4,0.4,1,0.4,1.4,0l0.9-0.9
				c0.2-0.2,0.3-0.4,0.3-0.7c0-0.3-0.1-0.5-0.3-0.7L42,16.3z"/>
		</g>
		<path d="M31.7,36c-5.7,0-7.3-6-8.6-11.4c-1.6-6.2-3-10.3-7.2-10.3c-1.5,0-2.7,0.5-3.7,1.5c-2.8,2.9-2.6,9-2.6,9.1
			c0,0.8-0.6,1.5-1.4,1.6c-0.8,0-1.5-0.6-1.5-1.4c0-0.3-0.3-7.4,3.4-11.3c1.5-1.6,3.5-2.4,5.8-2.4c6.8,0,8.6,7,10.1,12.6
			c1.5,5.7,2.6,9.1,5.8,9.1c1.6,0,2.9-0.6,4-1.7c2-2.1,2.4-5.6,2.4-6.4c-0.2-0.8,0.2-1.5,1-1.8c0.6-0.2,1.2,0,1.6,0.4
			c1.1,1.2-0.3,5.6-0.8,6.7C38.2,33.9,35.3,36,31.7,36z"/>
	</g>
</g>
<g id="IC_x5F_POWER" display="none">
	<path display="inline" d="M32.9,36.2H9.4c-3,0-5.5-2.5-5.5-5.5V17.3c0-3,2.5-5.5,5.5-5.5h23.5c3,0,5.5,2.5,5.5,5.5v13.3
		C38.4,33.7,35.9,36.2,32.9,36.2z M9.4,14.8c-1.4,0-2.5,1.1-2.5,2.5v13.3c0,1.4,1.1,2.5,2.5,2.5h23.5c1.4,0,2.5-1.1,2.5-2.5V17.3
		c0-1.4-1.1-2.5-2.5-2.5C32.9,14.8,9.4,14.8,9.4,14.8z"/>
	<path display="inline" d="M29.4,23.1h-6.2v-2.3c0-0.3-0.1-0.5-0.4-0.7c-0.2-0.2-0.5-0.2-0.8-0.1l-9.8,3.2c-0.4,0.1-0.7,0.5-0.6,1
		c0.1,0.4,0.4,0.7,0.9,0.7h6.2v2.3c0,0.3,0.1,0.5,0.4,0.7c0.2,0.1,0.3,0.2,0.5,0.2c0.1,0,0.2,0,0.3,0l9.8-3.2c0.4-0.1,0.7-0.5,0.6-1
		C30.2,23.4,29.9,23.1,29.4,23.1z"/>
	<path display="inline" d="M42.3,29.4L42.3,29.4c-0.9,0-1.7-0.7-1.7-1.7v-7.5c0-0.9,0.7-1.7,1.7-1.7l0,0c0.9,0,1.7,0.7,1.7,1.7v7.5
		C44,28.7,43.2,29.4,42.3,29.4z"/>
</g>
<g id="IC_x5F_RADIO" display="none">
	<g display="inline">
		<circle cx="32.1" cy="25.6" r="1.6"/>
		<circle cx="15.9" cy="25.6" r="1.6"/>
		<path d="M32.1,32.7c-3.9,0-7.1-3.2-7.1-7.1s3.2-7.1,7.1-7.1s7.1,3.2,7.1,7.1S36,32.7,32.1,32.7z M32.1,20.9
			c-2.6,0-4.7,2.1-4.7,4.7s2.1,4.7,4.7,4.7s4.7-2.1,4.7-4.7S34.7,20.9,32.1,20.9z"/>
		<path d="M15.9,32.7c-3.9,0-7.1-3.2-7.1-7.1s3.2-7.1,7.1-7.1s7.1,3.2,7.1,7.1S19.9,32.7,15.9,32.7z M15.9,20.9
			c-2.6,0-4.7,2.1-4.7,4.7s2.1,4.7,4.7,4.7s4.7-2.1,4.7-4.7S18.5,20.9,15.9,20.9z"/>
	</g>
	<path display="inline" d="M38.5,42.7h-29c-3,0-5.5-2.5-5.5-5.5V18.8c0-3,2.5-5.5,5.5-5.5h29.1c3,0,5.5,2.5,5.5,5.5v18.3
		C44,40.2,41.6,42.7,38.5,42.7z M9.5,16.3c-1.4,0-2.5,1.1-2.5,2.5v18.3c0,1.4,1.1,2.5,2.5,2.5h29.1c1.4,0,2.5-1.1,2.5-2.5V18.8
		c0-1.4-1.1-2.5-2.5-2.5H9.5z"/>
	<g display="inline">
		<path d="M20.3,36.3L20.3,36.3c0,0.9-0.8,1.7-1.7,1.7h-5.5c-0.9,0-1.7-0.8-1.7-1.7l0,0c0-0.9,0.7-1.7,1.7-1.7h5.5
			C19.6,34.7,20.3,35.4,20.3,36.3z"/>
		<path d="M36.5,36.3L36.5,36.3c0,0.9-0.7,1.7-1.7,1.7h-5.5c-0.9,0-1.7-0.8-1.7-1.7l0,0c0-0.9,0.8-1.7,1.7-1.7h5.5
			C35.8,34.7,36.5,35.4,36.5,36.3z"/>
	</g>
	<path display="inline" d="M24,3.9L24,3.9c0.9,0,1.7,0.7,1.7,1.7v4.9c0,0.9-0.7,1.7-1.7,1.7l0,0c-0.9,0-1.7-0.8-1.7-1.7V5.6
		C22.3,4.7,23.1,3.9,24,3.9z"/>
</g>
<g id="IC_x5F_CAMERA" display="none">
	<path display="inline" d="M38.5,40.7h-29c-3,0-5.5-2.5-5.5-5.5V16.8c0-3,2.5-5.5,5.5-5.5h29.1c3,0,5.5,2.5,5.5,5.5v18.3
		C44,38.2,41.6,40.7,38.5,40.7z M9.5,14.3c-1.4,0-2.5,1.1-2.5,2.5v18.3c0,1.4,1.1,2.5,2.5,2.5h29.1c1.4,0,2.5-1.1,2.5-2.5V16.8
		c0-1.4-1.1-2.5-2.5-2.5C38.6,14.3,9.5,14.3,9.5,14.3z"/>
	<polygon display="inline" points="21.1,9.9 18.7,5.9 29.5,5.9 27.2,9.9 	"/>
	<path display="inline" d="M24,21.8c-2.3,0-4.2,1.9-4.2,4.2s1.9,4.2,4.2,4.2s4.2-1.9,4.2-4.2S26.3,21.8,24,21.8z M25.1,26.5
		c-0.9,0-1.6-0.7-1.6-1.6s0.7-1.6,1.6-1.6s1.6,0.7,1.6,1.6S26,26.5,25.1,26.5z"/>
	<path display="inline" d="M24,36.2c-5.7,0-10.2-4.6-10.2-10.2S18.3,15.8,24,15.8S34.2,20.3,34.2,26S29.7,36.2,24,36.2z M24,19.2
		c-3.7,0-6.8,3-6.8,6.8s3,6.8,6.8,6.8s6.8-3,6.8-6.8S27.7,19.2,24,19.2z"/>
	<circle display="inline" cx="36.6" cy="18.2" r="1.6"/>
</g>
<g id="IC_x5F_SAFETY" display="none">
	<path display="inline" d="M23.2,43.6c-0.1,0-0.2,0-0.4,0c-1.3-0.3-4.5-1.2-8-3.2c-5.6-3.2-8.4-7.1-8.4-11.7V10.1
		c0-0.7,0.4-1.3,1.1-1.4l15.2-4.3c0.3-0.1,0.5-0.1,0.8,0l15.2,4.3c0.6,0.2,1.1,0.8,1.1,1.4v18.6c0,1.9-0.5,3.7-1.4,5.3
		c0,0.1-0.1,0.1-0.1,0.2L38,34.7c-1.1,1.7-2.7,3.2-4.6,4.5l-0.1,0.1c-0.3,0.2-0.5,0.4-0.8,0.5L32.1,40c-0.4,0.3-0.8,0.5-1.2,0.7
		c-0.7,0.4-1.6,0.9-2.4,1.2s-1.5,0.6-2.1,0.8l-0.3,0.1c-1.5,0.5-2.5,0.8-2.6,0.8C23.4,43.6,23.3,43.6,23.2,43.6z M9.5,11.3v17.5
		c0,3.4,2.3,6.5,6.8,9.1c2.9,1.6,5.6,2.5,6.9,2.8c0.4-0.1,1.1-0.3,2-0.6l0.3-0.1c0.6-0.2,1.2-0.4,1.9-0.7c0.7-0.3,1.5-0.7,2.2-1.1
		c0.4-0.2,0.7-0.4,1-0.6l0.3-0.2c0.2-0.1,0.5-0.3,0.7-0.5l0.1-0.1c1.7-1.1,3-2.4,3.9-3.8l0.1-0.1l0.3-0.4c0.7-1.2,1-2.4,1-3.7V11.3
		L23.2,7.4L9.5,11.3z"/>
	<path display="inline" d="M31.8,17c0.7,0.7,0.7,1.9,0,2.5L21.2,30.1c-0.4,0.4-0.8,0.5-1.3,0.5l0,0c-0.5,0-0.9-0.2-1.3-0.5l-4.5-4.5
		c-0.7-0.7-0.7-1.9,0-2.5c0.7-0.7,1.9-0.7,2.5,0l3.2,3.2l9.3-9.3C30,16.3,31.2,16.3,31.8,17z"/>
</g>
<g id="IC_x5F_SENSOR" display="none">
	<g display="inline">
		<g>
			<path d="M26.3,21.8c-1.2-1.2-3.2-1.2-4.5,0c-1.2,1.2-1.2,3.2,0,4.5c1.2,1.2,3.2,1.2,4.5,0C27.5,25,27.5,23,26.3,21.8z"/>
			<path d="M36,12c-3-3-6.9-4.6-11.1-4.6c-0.9,0-1.7,0.8-1.7,1.7c0,0.5,0.2,0.9,0.5,1.2s0.7,0.5,1.2,0.5c3.3,0,6.4,1.3,8.7,3.6
				s3.6,5.4,3.6,8.7c0,0.9,0.8,1.7,1.7,1.7s1.7-0.8,1.7-1.7C40.6,18.9,39,14.9,36,12z"/>
			<path d="M31.3,16.7c-2-2-4.7-3.1-7.5-3.1c-0.9,0-1.7,0.8-1.7,1.7c0,0.9,0.8,1.7,1.7,1.7c1.9,0,3.8,0.8,5.1,2.1
				c1.4,1.4,2.1,3.2,2.1,5.1c0,0.5,0.2,0.9,0.5,1.2c0.3,0.3,0.7,0.5,1.2,0.5c0.9,0,1.7-0.8,1.7-1.7C34.4,21.4,33.3,18.7,31.3,16.7z"
				/>
		</g>
		<g>
			<path d="M12,36c3,3,6.9,4.6,11.1,4.6c0.9,0,1.7-0.8,1.7-1.7c0-0.5-0.2-0.9-0.5-1.2s-0.7-0.5-1.2-0.5c-3.3,0-6.4-1.3-8.7-3.6
				s-3.6-5.4-3.6-8.7c0-0.9-0.8-1.7-1.7-1.7S7.4,24,7.4,24.9C7.4,29.1,9,33.1,12,36z"/>
			<path d="M16.7,31.3c2,2,4.7,3.1,7.5,3.1c0.9,0,1.7-0.8,1.7-1.7c0-0.9-0.8-1.7-1.7-1.7c-1.9,0-3.8-0.8-5.1-2.1
				c-1.4-1.4-2.1-3.2-2.1-5.1c0-0.5-0.2-0.9-0.5-1.2c-0.3-0.3-0.7-0.5-1.2-0.5c-0.9,0-1.7,0.8-1.7,1.7
				C13.6,26.6,14.7,29.3,16.7,31.3z"/>
		</g>
	</g>
</g>
<g id="IC_x5F_TUNING" display="none">
	<g display="inline">
		<path d="M12.2,20.8C10.5,20.8,9,22.3,9,24s1.4,3.2,3.2,3.2c1.7,0,3.2-1.4,3.2-3.2C15.4,22.3,14,20.8,12.2,20.8z"/>
		<path d="M24,15.2c-1.7,0-3.2,1.4-3.2,3.2c0,1.7,1.4,3.2,3.2,3.2c1.7,0,3.2-1.4,3.2-3.2C27.2,16.6,25.7,15.2,24,15.2z"/>
		<path d="M35.8,25c-1.7,0-3.2,1.4-3.2,3.2c0,1.7,1.4,3.2,3.2,3.2c1.7,0,3.2-1.4,3.2-3.2S37.5,25,35.8,25z"/>
		<g>
			<path d="M12.2,29c-0.6,0-1.1-0.1-1.7-0.3v9.1c0,0.9,0.8,1.7,1.7,1.7s1.7-0.8,1.7-1.7v-9.1C13.4,28.8,12.8,29,12.2,29z"/>
			<path d="M12.2,18.9c0.6,0,1.2,0.1,1.7,0.3v-9c0-0.9-0.8-1.7-1.7-1.7s-1.7,0.8-1.7,1.7v9C11.1,19,11.6,18.9,12.2,18.9z"/>
		</g>
		<g>
			<path d="M24,13.5c0.6,0,1.2,0.1,1.7,0.3v-3.6c0-0.9-0.8-1.7-1.7-1.7s-1.7,0.8-1.7,1.7v3.6C22.8,13.6,23.4,13.5,24,13.5z"/>
			<path d="M24,23.6c-0.6,0-1.1-0.1-1.7-0.3v14.5c0,0.9,0.8,1.7,1.7,1.7s1.7-0.8,1.7-1.7V23.3C25.1,23.5,24.6,23.6,24,23.6z"/>
		</g>
		<g>
			<path d="M35.8,23.1c0.6,0,1.2,0.1,1.7,0.3V10.2c0-0.9-0.8-1.7-1.7-1.7s-1.7,0.8-1.7,1.7v13.1C34.6,23.2,35.2,23.1,35.8,23.1z"/>
			<path d="M35.8,33.1c-0.6,0-1.1-0.1-1.7-0.3v4.9c0,0.9,0.8,1.7,1.7,1.7s1.7-0.8,1.7-1.7v-4.9C36.9,33,36.4,33.1,35.8,33.1z"/>
		</g>
	</g>
</g>
<g id="IC_x5F_PARAMETERS" display="none">
	<g display="inline">
		<path d="M24,15.1c-4.9,0-8.9,4-8.9,8.9s4,8.9,8.9,8.9s8.9-4,8.9-8.9S28.9,15.1,24,15.1z M29.8,24c0,3.2-2.6,5.8-5.8,5.8
			s-5.8-2.6-5.8-5.8s2.6-5.8,5.8-5.8S29.8,20.8,29.8,24z"/>
		<path d="M41.6,19.5l-2.5-0.4c-0.3-0.8-0.6-1.5-0.9-2.3l1.5-2.1c0.8-1.1,0.7-2.7-0.3-3.7L37,8.6c-1-1-2.6-1.1-3.6-0.3l-2.1,1.5
			c-0.8-0.4-1.6-0.7-2.4-1l-0.4-2.5C28.2,5,27,4,25.6,4h-3.4c-1.4,0-2.6,1-2.8,2.4L19,8.9c-0.8,0.3-1.5,0.6-2.3,1l-2-1.5
			C13.6,7.6,12,7.7,11,8.7l-2.4,2.4c-1,1-1.1,2.5-0.3,3.6l1.5,2.1c-0.4,0.7-0.7,1.5-0.9,2.3l-2.5,0.4C5,19.8,4,21,4,22.4v3.4
			c0,1.4,1,2.6,2.4,2.8L8.9,29c0.3,0.8,0.6,1.5,1,2.3l-1.5,2C7.6,34.5,7.7,36,8.7,37l2.4,2.4c1,1,2.5,1.1,3.6,0.3l2.1-1.5
			c0.7,0.4,1.4,0.7,2.2,0.9l0.4,2.5c0.2,1.4,1.4,2.4,2.8,2.4h3.4c1.4,0,2.6-1,2.8-2.4l0.4-2.5c0.8-0.3,1.5-0.6,2.3-0.9l2.1,1.5
			c1.1,0.8,2.7,0.7,3.7-0.3l2.4-2.4c1-1,1.1-2.5,0.3-3.6l-1.5-2.1c0.4-0.7,0.7-1.5,0.9-2.3l2.5-0.4c1.4-0.2,2.4-1.4,2.4-2.8v-3.4
			C44,20.9,43,19.7,41.6,19.5z M36.5,27.2c-0.3,1.2-0.8,2.3-1.4,3.3c-0.3,0.5-0.3,1.2,0.1,1.7l1.9,2.7l-2.2,2.2l-2.7-1.9
			c-0.5-0.4-1.1-0.4-1.7-0.1c-1,0.6-2.2,1.1-3.3,1.4c-0.6,0.1-1,0.6-1.1,1.2L25.5,41h-3.1l-0.5-3.3c-0.1-0.6-0.5-1.1-1.1-1.2
			c-1.1-0.3-2.2-0.7-3.2-1.3c-0.5-0.3-1.2-0.3-1.6,0.1l-2.7,1.9L11,35l1.9-2.7c0.4-0.5,0.4-1.1,0.1-1.7c-0.6-1-1.1-2.1-1.4-3.3
			c-0.2-0.6-0.6-1-1.2-1.1L7,25.6v-3.1l3.2-0.5c0.6-0.1,1.1-0.5,1.2-1.1c0.3-1.2,0.7-2.3,1.4-3.3c0.3-0.5,0.3-1.2-0.1-1.6l-1.9-2.7
			L13,11l2.7,1.9c0.5,0.4,1.1,0.4,1.7,0.1c1-0.6,2.1-1.1,3.3-1.4c0.6-0.2,1-0.6,1.1-1.2L22.4,7h3.1l0.5,3.2c0.1,0.6,0.5,1.1,1.1,1.2
			c1.2,0.3,2.3,0.8,3.4,1.4c0.5,0.3,1.2,0.3,1.7-0.1l2.7-1.9l2.2,2.2l-1.9,2.7c-0.3,0.5-0.4,1.1-0.1,1.7c0.6,1,1.1,2.2,1.4,3.3
			c0.2,0.6,0.6,1,1.2,1.1l3.3,0.6v3.1L37.7,26C37.1,26.2,36.6,26.6,36.5,27.2z"/>
	</g>
</g>
<g id="IC_x5F_SUMMARY" display="none">
	<g display="inline">
		<g>
			<path d="M42.3,17.8H14.5c-1,0-1.6,0.8-1.6,1.6c0,0.4,0.2,0.8,0.5,1.1c0.3,0.3,0.7,0.5,1.1,0.5h27.8c0.8,0,1.6-0.8,1.6-1.6
				S43.1,17.8,42.3,17.8z"/>
			<circle cx="7" cy="19.4" r="2.9"/>
		</g>
		<g>
			<path d="M42.3,8.6H14.5c-1,0-1.6,0.8-1.6,1.6c0,0.4,0.2,0.8,0.5,1.1s0.7,0.5,1.1,0.5h27.8c0.8,0,1.6-0.8,1.6-1.6
				S43.1,8.6,42.3,8.6z"/>
			<circle cx="7" cy="10.3" r="2.9"/>
		</g>
		<g>
			<path d="M42.3,27H14.5c-1,0-1.6,0.8-1.6,1.6c0,0.4,0.2,0.8,0.5,1.1c0.3,0.3,0.7,0.5,1.1,0.5h27.8c0.8,0,1.6-0.8,1.6-1.6
				S43.1,27,42.3,27z"/>
			<circle cx="7" cy="28.6" r="2.9"/>
		</g>
		<g>
			<path d="M42.3,36.1H14.5c-1,0-1.6,0.8-1.6,1.6c0,0.4,0.2,0.8,0.5,1.1s0.7,0.5,1.1,0.5h27.8c0.8,0,1.6-0.8,1.6-1.6
				S43.1,36.1,42.3,36.1z"/>
			<circle cx="7" cy="37.7" r="2.9"/>
		</g>
	</g>
</g>
<g id="ICJJOYSTICK" display="none">
	<path display="inline" d="M24,18.8L24,18.8c0.9,0,1.7,0.8,1.7,1.7v11.9c0,0.9-0.7,1.7-1.7,1.7l0,0c-0.9,0-1.7-0.8-1.7-1.7v-12
		C22.3,19.5,23.1,18.8,24,18.8z"/>
	<g display="inline">
		<circle cx="24.1" cy="12.9" r="2"/>
		<path d="M24.1,21.7c-4.9,0-8.9-4-8.9-8.9s4-8.9,8.9-8.9S33,8,33,12.9S29,21.7,24.1,21.7z M24.1,7c-3.2,0-5.9,2.6-5.9,5.9
			s2.6,5.9,5.9,5.9s5.9-2.6,5.9-5.9S27.4,7,24.1,7z"/>
	</g>
	<path display="inline" d="M34.5,23.3h-6.6v3h6.6c1.4,0,2.5,1.1,2.5,2.5v9.3c0,1.4-1.1,2.5-2.5,2.5H13.4c-1.4,0-2.5-1.1-2.5-2.5
		v-9.3c0-1.4,1.1-2.5,2.5-2.5H20v-3h-6.6c-3,0-5.5,2.5-5.5,5.5v9.3c0,3,2.5,5.5,5.5,5.5h21.1c3,0,5.5-2.5,5.5-5.5v-9.3
		C40,25.8,37.5,23.3,34.5,23.3z"/>
	<path display="inline" d="M27.2,29.3v3.4c0,1.7-1.4,3.2-3.2,3.2s-3.2-1.4-3.2-3.2v-3.4c-1.4,1-2.3,2.6-2.3,4.4c0,3,2.4,5.4,5.4,5.4
		s5.4-2.4,5.4-5.4C29.4,31.9,28.5,30.3,27.2,29.3z"/>
</g>
</svg>
