<?xml version="1.0" encoding="utf-8"?>
<!-- Generator: Adobe Illustrator 19.2.1, SVG Export Plug-In . SVG Version: 6.00 Build 0)  -->
<svg version="1.1" id="Layer_1" xmlns="http://www.w3.org/2000/svg" xmlns:xlink="http://www.w3.org/1999/xlink" x="0px" y="0px"
	 viewBox="0 0 200 200" style="enable-background:new 0 0 200 200;" xml:space="preserve">
<style type="text/css">
	.st0{fill:#4B2C6D;}
	.st1{fill:#5ECBF1;}
</style>
<path class="st0" d="M141.78,0H58.22C26.06,0,0,26.06,0,58.22v83.57C0,173.94,26.06,200,58.22,200h83.57
	c32.15,0,58.22-26.06,58.22-58.22V58.22C200,26.06,173.94,0,141.78,0z M140.16,157.88l-10.74-10.74c-8.03,4.77-17.4,7.51-27.42,7.51
	v-0.04c-27.85,0-50.76-21.1-53.6-48.17h23.33c2.85,15.26,16.94,26.56,33.36,24.96c2.43-0.24,4.78-0.77,7.02-1.56l-10.81-10.81
	l16.41-16.41l11.85,11.85c1.65-3.28,2.72-6.87,3.09-10.66c1.58-16.46-9.8-30.58-25.14-33.35V47.14
	c27.15,2.76,48.34,25.71,48.34,53.62h0.04c0,11.34-3.52,21.86-9.51,30.54l10.18,10.18L140.16,157.88z"/>
<path class="st1" d="M96.25,31.56c-0.13,0-0.38,0.02-0.38,0.02c-33.41,2.94-60.04,29.58-62.97,63.03c0,0.02-0.02,0.33-0.02,0.36
	c0,0.02-0.01,0.19-0.01,0.26c0,2.16,1.75,3.91,3.91,3.91c2.1,0,3.81-1.65,3.9-3.72c0,0,0,0,0,0c2.55-29.72,26.16-53.41,55.82-56.04
	l0,0c1.98-0.13,3.56-1.73,3.66-3.72c0-0.06,0-0.12,0-0.19C100.16,33.31,98.41,31.56,96.25,31.56z"/>
<path class="st1" d="M96.25,47.1c-0.14,0-0.28,0.01-0.41,0.02c0,0-0.06,0.01-0.06,0.01c-25.06,2.89-45.01,23.27-47.39,47.64
	c0,0-0.03,0.32-0.03,0.49c0,2.16,1.75,3.91,3.91,3.91c2.1,0,3.81-1.65,3.9-3.72c0-0.02,0-0.04,0-0.06
	c2.45-21.16,19.2-37.95,40.32-40.46l0-0.02c1.98-0.12,3.57-1.71,3.66-3.7c0-0.06,0-0.12,0-0.19C100.16,48.85,98.41,47.1,96.25,47.1z
	"/>
<path class="st1" d="M96.25,62.71c-0.25,0-0.49,0.02-0.73,0.07c-16.1,2.73-28.85,15.53-31.51,31.66C64,94.48,64,94.53,63.99,94.57
	c-0.04,0.24-0.07,0.56-0.07,0.7c0,2.16,1.75,3.91,3.91,3.91c0.16,0,0.31-0.01,0.46-0.03c1.83-0.21,3.27-1.69,3.43-3.53
	c0.01-0.06,0.03-0.32,0.04-0.36c2.25-12.58,12.16-22.48,24.74-24.75c0,0,0.14-0.01,0.21-0.02c1.88-0.22,3.36-1.78,3.45-3.7
	c0-0.06,0-0.12,0-0.19C100.16,64.46,98.41,62.71,96.25,62.71z"/>
</svg>
