<?xml version="1.0" encoding="utf-8"?>
<!-- Generator: Adobe Illustrator 19.2.1, SVG Export Plug-In . SVG Version: 6.00 Build 0)  -->
<svg version="1.1" id="Layer_1" xmlns="http://www.w3.org/2000/svg" xmlns:xlink="http://www.w3.org/1999/xlink" x="0px" y="0px"
	 viewBox="0 0 1428.74 200" style="enable-background:new 0 0 1428.74 200;" xml:space="preserve">
<g>
	<path d="M435.52,100.56h23.2v36.65c-10.25,11.43-24.43,17.14-42.56,17.14c-15.17,0-27.91-5.03-38.2-15.07
		c-10.3-10.05-15.44-22.73-15.44-38.05c0-15.32,5.25-28.1,15.74-38.35c10.49-10.25,23.15-15.37,37.98-15.37
		c14.83,0,27.71,4.88,38.64,14.63l-11.97,17.29c-4.63-4.04-8.89-6.82-12.78-8.35c-3.89-1.53-8.1-2.29-12.64-2.29
		c-8.77,0-16.16,2.98-22.17,8.94c-6.01,5.96-9.01,13.82-9.01,23.57c0,9.75,2.88,17.56,8.65,23.42c5.76,5.86,12.64,8.79,20.62,8.79
		s14.63-1.53,19.95-4.58V100.56z"/>
	<path d="M517.79,93.17c-6.6,0-11.53,2.34-14.78,7.02c-3.25,4.68-4.88,10.86-4.88,18.55v34.43h-22.17V73.66h22.17v10.49
		c2.86-3.25,6.43-6.01,10.71-8.27c4.29-2.27,8.65-3.45,13.08-3.55l0.15,20.84H517.79z"/>
	<path d="M612.5,113.41c0,11.53-3.99,21.23-11.97,29.11c-7.98,7.88-18.01,11.82-30.07,11.82c-12.07,0-22.09-3.94-30.07-11.82
		c-7.98-7.88-11.97-17.58-11.97-29.11s3.99-21.25,11.97-29.19c7.98-7.93,18-11.9,30.07-11.9c12.07,0,22.09,3.97,30.07,11.9
		C608.51,92.16,612.5,101.89,612.5,113.41z M550.73,113.41c0,6.5,1.85,11.8,5.54,15.89c3.69,4.09,8.42,6.13,14.19,6.13
		c5.76,0,10.49-2.04,14.19-6.13c3.69-4.09,5.54-9.38,5.54-15.89s-1.85-11.82-5.54-15.96s-8.42-6.21-14.19-6.21
		c-5.76,0-10.49,2.07-14.19,6.21C552.58,101.59,550.73,106.91,550.73,113.41z"/>
	<path d="M677.64,116.52V73.66h22.31v79.51h-22.31v-10.49c-5.52,7.78-12.63,11.67-21.35,11.67s-16.03-2.73-21.95-8.2
		s-8.87-13.57-8.87-24.31V73.66h22.31v43.3c0,12.22,4.48,18.32,13.45,18.32c4.43,0,8.28-1.6,11.53-4.8
		C676.02,127.28,677.64,122.63,677.64,116.52z"/>
	<path d="M740.49,108.83v44.33h-22.17V73.66h22.17v8.87c6.7-6.8,14.24-10.2,22.61-10.2c8.37,0,15.39,2.96,21.06,8.87
		c5.67,5.91,8.5,13.79,8.5,23.64v48.32h-22.17v-44.92c0-12.21-4.48-18.33-13.45-18.33c-4.43,0-8.3,1.6-11.6,4.8
		C742.14,97.92,740.49,102.62,740.49,108.83z"/>
	<path d="M841.97,154.35c-9.41,0-17.81-3.99-25.2-11.97s-11.08-17.88-11.08-29.7c0-11.82,3.6-21.5,10.79-29.04
		c7.19-7.54,15.61-11.31,25.27-11.31c9.65,0,17.54,3.4,23.65,10.2V43.51h22.17v109.65H865.4v-10.49
		C859.19,150.46,851.38,154.35,841.97,154.35z M828.01,113.56c0,6.41,1.92,11.65,5.76,15.74c3.84,4.09,8.32,6.13,13.45,6.13
		c5.12,0,9.48-2.04,13.08-6.13c3.59-4.09,5.39-9.36,5.39-15.81c0-6.45-1.8-11.82-5.39-16.11c-3.6-4.29-8.01-6.43-13.23-6.43
		c-5.22,0-9.71,2.17-13.45,6.5C829.88,101.79,828.01,107.16,828.01,113.56z"/>
	<path d="M956.68,132.77c11.33,0,20.59-4.48,27.78-13.45l14.78,15.22c-11.73,13.2-25.54,19.8-41.45,19.8
		c-15.91,0-29.02-5.03-39.31-15.07c-10.3-10.05-15.44-22.73-15.44-38.05c0-15.32,5.25-28.1,15.74-38.35
		c10.49-10.25,23.32-15.37,38.5-15.37c16.94,0,31.13,6.45,42.56,19.36l-14.33,16.26c-7.29-9.06-16.36-13.6-27.19-13.6
		c-8.67,0-16.08,2.83-22.24,8.5c-6.16,5.67-9.24,13.3-9.24,22.91s2.91,17.32,8.72,23.13C941.36,129.87,948.4,132.77,956.68,132.77z"
		/>
	<path d="M1090.39,113.41c0,11.53-3.99,21.23-11.97,29.11c-7.98,7.88-18.01,11.82-30.07,11.82c-12.07,0-22.09-3.94-30.07-11.82
		c-7.98-7.88-11.97-17.58-11.97-29.11s3.99-21.25,11.97-29.19c7.98-7.93,18-11.9,30.07-11.9c12.07,0,22.09,3.97,30.07,11.9
		C1086.4,92.16,1090.39,101.89,1090.39,113.41z M1028.62,113.41c0,6.5,1.85,11.8,5.54,15.89c3.69,4.09,8.42,6.13,14.19,6.13
		c5.76,0,10.49-2.04,14.19-6.13c3.69-4.09,5.54-9.38,5.54-15.89s-1.85-11.82-5.54-15.96s-8.42-6.21-14.19-6.21
		c-5.76,0-10.49,2.07-14.19,6.21S1028.62,106.91,1028.62,113.41z"/>
	<path d="M1126.24,108.83v44.33h-22.17V73.66h22.17v8.87c6.7-6.8,14.24-10.2,22.61-10.2c8.37,0,15.39,2.96,21.06,8.87
		c5.67,5.91,8.5,13.79,8.5,23.64v48.32h-22.17v-44.92c0-12.21-4.48-18.33-13.45-18.33c-4.43,0-8.3,1.6-11.6,4.8
		C1127.89,97.92,1126.24,102.62,1126.24,108.83z"/>
	<path d="M1220.17,89.62v35.61c0,3.05,0.79,5.45,2.36,7.17c1.58,1.72,3.45,2.59,5.62,2.59c4.14,0,7.63-1.87,10.49-5.62l8.28,15.52
		c-6.9,6.31-14.16,9.46-21.8,9.46c-7.64,0-14.09-2.51-19.36-7.54c-5.27-5.02-7.91-11.87-7.91-20.54V89.62h-9.31V73.66h9.31V49.87
		h22.32v23.79h19.21v15.96H1220.17z"/>
	<path d="M1297.99,93.17c-6.6,0-11.53,2.34-14.78,7.02c-3.25,4.68-4.88,10.86-4.88,18.55v34.43h-22.17V73.66h22.17v10.49
		c2.86-3.25,6.43-6.01,10.71-8.27c4.29-2.27,8.64-3.45,13.08-3.55l0.15,20.84H1297.99z"/>
	<path d="M1392.7,113.41c0,11.53-3.99,21.23-11.97,29.11c-7.98,7.88-18.01,11.82-30.07,11.82c-12.07,0-22.09-3.94-30.07-11.82
		c-7.98-7.88-11.97-17.58-11.97-29.11s3.99-21.25,11.97-29.19c7.98-7.93,18-11.9,30.07-11.9c12.07,0,22.09,3.97,30.07,11.9
		C1388.71,92.16,1392.7,101.89,1392.7,113.41z M1330.92,113.41c0,6.5,1.85,11.8,5.54,15.89c3.69,4.09,8.42,6.13,14.19,6.13
		c5.76,0,10.49-2.04,14.19-6.13c3.69-4.09,5.54-9.38,5.54-15.89s-1.85-11.82-5.54-15.96s-8.42-6.21-14.19-6.21
		c-5.76,0-10.49,2.07-14.19,6.21S1330.92,106.91,1330.92,113.41z"/>
	<path d="M1428.74,153.17h-22.17V43.51h22.17V153.17z"/>
</g>
<path d="M352.1,142.26l-10.14-10.14c6.51-8.88,9.77-19.29,9.77-31.27c0-15.17-5.22-27.86-15.66-38.05
	c-10.44-10.2-23.3-15.3-38.57-15.3c-15.27,0-28.13,5.1-38.57,15.3c-10.44,10.2-15.66,22.88-15.66,38.05
	c0,15.17,5.22,27.86,15.66,38.05c10.44,10.2,23.3,15.29,38.57,15.29c10.86,0,20.49-2.59,28.91-7.75l10.75,10.75L352.1,142.26z
	 M297.57,134.1c-8.62,0-15.89-3.23-21.8-9.68c-5.91-6.45-8.87-14.28-8.87-23.5c0-9.21,2.96-17.07,8.87-23.57
	c5.91-6.5,13.18-9.75,21.8-9.75c8.62,0,15.89,3.25,21.8,9.75c5.91,6.5,8.87,14.36,8.87,23.57c0,5.3-0.98,10.14-2.94,14.53
	l-8.58-8.58l-14.94,14.94l9.16,9.16C306.92,133.06,302.46,134.1,297.57,134.1z"/>
<path d="M141.78,0H58.22C26.06,0,0,26.06,0,58.22v83.57C0,173.94,26.06,200,58.22,200h83.57c32.15,0,58.22-26.06,58.22-58.22V58.22
	C200,26.06,173.94,0,141.78,0z M36.77,99.14c-2.16,0-3.91-1.75-3.91-3.91c0-0.07,0.01-0.24,0.01-0.26c0-0.03,0.02-0.34,0.02-0.36
	c2.93-33.45,29.56-60.09,62.97-63.03c0.01,0,0.26-0.02,0.38-0.02c2.16,0,3.91,1.75,3.91,3.91c0,0.06,0,0.12,0,0.19
	c-0.09,1.99-1.68,3.59-3.66,3.72C66.83,42.01,43.22,65.7,40.67,95.42l0,0C40.58,97.49,38.87,99.14,36.77,99.14z M48.38,94.77
	c2.39-24.37,22.33-44.75,47.39-47.64c0,0,0.06-0.01,0.06-0.01c0.14-0.01,0.27-0.02,0.41-0.02c2.16,0,3.91,1.75,3.91,3.91
	c0,0.06,0,0.12,0,0.19c-0.09,1.99-1.68,3.58-3.66,3.7l0,0.02c-21.13,2.51-37.87,19.31-40.32,40.46c0,0.02,0,0.04,0,0.06
	c-0.1,2.07-1.81,3.72-3.9,3.72c-2.16,0-3.91-1.75-3.91-3.91C48.35,95.09,48.38,94.77,48.38,94.77z M100.16,66.62
	c0,0.06,0,0.12,0,0.19c-0.09,1.92-1.56,3.48-3.45,3.7c-0.07,0.01-0.21,0.02-0.21,0.02C83.92,72.8,74.01,82.69,71.76,95.27
	c-0.01,0.04-0.03,0.3-0.04,0.36c-0.17,1.84-1.61,3.31-3.43,3.53c-0.15,0.02-0.3,0.03-0.46,0.03c-2.16,0-3.91-1.75-3.91-3.91
	c0-0.14,0.03-0.47,0.07-0.7c0.01-0.04,0.01-0.09,0.02-0.13c2.65-16.13,15.4-28.93,31.51-31.66c0.23-0.04,0.48-0.07,0.73-0.07
	C98.41,62.71,100.16,64.46,100.16,66.62z M140.16,157.88l-10.74-10.74c-8.03,4.77-17.4,7.51-27.42,7.51v-0.04
	c-27.85,0-50.76-21.1-53.6-48.17h23.33c2.85,15.26,16.94,26.56,33.36,24.96c2.43-0.24,4.78-0.77,7.02-1.56l-10.81-10.81l16.41-16.41
	l11.85,11.85c1.65-3.28,2.72-6.87,3.09-10.66c1.58-16.46-9.8-30.58-25.14-33.35V47.14c27.15,2.76,48.34,25.71,48.34,53.62h0.04
	c0,11.34-3.52,21.86-9.51,30.54l10.18,10.18L140.16,157.88z"/>
</svg>
