<?xml version="1.0" encoding="utf-8"?>
<!-- Generator: Adobe Illustrator 19.2.1, SVG Export Plug-In . SVG Version: 6.00 Build 0)  -->
<svg version="1.1" id="Layer_1" xmlns="http://www.w3.org/2000/svg" xmlns:xlink="http://www.w3.org/1999/xlink" x="0px" y="0px"
	 viewBox="0 0 203 203" style="enable-background:new 0 0 203 203;" xml:space="preserve">
<style type="text/css">
	.st0{fill:#FFFFFF;}
	.st1{fill:#5ECBF1;}
</style>
<g>
	<g>
		<path class="st0" d="M143.28,203H59.72C26.79,203,0,176.21,0,143.28V59.72C0,26.79,26.79,0,59.72,0h83.57
			C176.21,0,203,26.79,203,59.72v83.57C203,176.21,176.21,203,143.28,203z M59.72,3C28.44,3,3,28.44,3,59.72v83.57
			C3,174.56,28.44,200,59.72,200h83.57c31.27,0,56.72-25.44,56.72-56.72V59.72C200,28.44,174.56,3,143.28,3H59.72z"/>
	</g>
	<path class="st0" d="M158.06,142.97l-10.18-10.18c5.99-8.68,9.51-19.2,9.51-30.54h-0.04c0-27.91-21.19-50.86-48.34-53.62v23.32
		c15.33,2.77,26.72,16.89,25.14,33.35c-0.36,3.79-1.44,7.38-3.09,10.66l-11.85-11.85l-16.41,16.41l10.81,10.81
		c-2.24,0.78-4.59,1.32-7.02,1.56c-16.41,1.6-30.51-9.7-33.36-24.96H49.9c2.84,27.07,25.75,48.17,53.6,48.17v0.04
		c10.01,0,19.38-2.75,27.42-7.51l10.74,10.74L158.06,142.97z"/>
	<path class="st1" d="M97.75,33.06c-0.13,0-0.38,0.02-0.38,0.02c-33.41,2.94-60.04,29.58-62.97,63.03c0,0.02-0.02,0.33-0.02,0.36
		c0,0.02-0.01,0.19-0.01,0.26c0,2.16,1.75,3.91,3.91,3.91c2.1,0,3.81-1.65,3.9-3.72c0,0,0,0,0,0c2.55-29.72,26.16-53.41,55.82-56.04
		l0,0c1.98-0.13,3.56-1.73,3.66-3.72c0-0.06,0-0.12,0-0.19C101.66,34.81,99.91,33.06,97.75,33.06z"/>
	<path class="st1" d="M97.75,48.6c-0.14,0-0.28,0.01-0.41,0.02c0,0-0.06,0.01-0.06,0.01c-25.06,2.89-45.01,23.27-47.39,47.64
		c0,0-0.03,0.32-0.03,0.49c0,2.16,1.75,3.91,3.91,3.91c2.1,0,3.81-1.65,3.9-3.72c0-0.02,0-0.04,0-0.06
		c2.45-21.16,19.2-37.95,40.32-40.46l0-0.02c1.98-0.12,3.57-1.71,3.66-3.7c0-0.06,0-0.12,0-0.19C101.66,50.35,99.91,48.6,97.75,48.6
		z"/>
	<path class="st1" d="M97.75,64.21c-0.25,0-0.49,0.02-0.73,0.07c-16.1,2.73-28.85,15.53-31.51,31.66c-0.01,0.04-0.01,0.09-0.02,0.13
		c-0.04,0.24-0.07,0.56-0.07,0.7c0,2.16,1.75,3.91,3.91,3.91c0.16,0,0.31-0.01,0.46-0.03c1.83-0.21,3.27-1.69,3.43-3.53
		c0.01-0.06,0.03-0.32,0.04-0.36c2.25-12.58,12.16-22.48,24.74-24.75c0,0,0.14-0.01,0.21-0.02c1.88-0.22,3.36-1.78,3.45-3.7
		c0-0.06,0-0.12,0-0.19C101.66,65.96,99.91,64.21,97.75,64.21z"/>
</g>
</svg>
