<?xml version="1.0" encoding="utf-8"?>
<!-- Generator: Adobe Illustrator 19.2.1, SVG Export Plug-In . SVG Version: 6.00 Build 0)  -->
<svg version="1.1" id="Layer_1" xmlns="http://www.w3.org/2000/svg" xmlns:xlink="http://www.w3.org/1999/xlink" x="0px" y="0px"
	 viewBox="0 0 200 200" style="enable-background:new 0 0 200 200;" xml:space="preserve">
<path d="M141.78,0H58.22C26.06,0,0,26.06,0,58.22v83.57C0,173.94,26.06,200,58.22,200h83.57c32.15,0,58.22-26.06,58.22-58.22V58.22
	C200,26.06,173.94,0,141.78,0z M36.77,99.14c-2.16,0-3.91-1.75-3.91-3.91c0-0.07,0.01-0.24,0.01-0.26c0-0.03,0.02-0.34,0.02-0.36
	c2.93-33.45,29.56-60.09,62.97-63.03c0.01,0,0.26-0.02,0.38-0.02c2.16,0,3.91,1.75,3.91,3.91c0,0.06,0,0.12,0,0.19
	c-0.09,1.99-1.68,3.59-3.66,3.72C66.83,42.01,43.22,65.7,40.67,95.42c0,0,0,0,0,0C40.58,97.49,38.87,99.14,36.77,99.14z
	 M48.38,94.77c2.39-24.37,22.33-44.75,47.39-47.64c0,0,0.06-0.01,0.06-0.01c0.14-0.01,0.27-0.02,0.41-0.02
	c2.16,0,3.91,1.75,3.91,3.91c0,0.06,0,0.12,0,0.19c-0.09,1.99-1.68,3.58-3.66,3.7l0,0.02c-21.13,2.51-37.87,19.31-40.32,40.46
	c0,0.02,0,0.04,0,0.06c-0.1,2.07-1.81,3.72-3.9,3.72c-2.16,0-3.91-1.75-3.91-3.91C48.35,95.09,48.38,94.77,48.38,94.77z
	 M100.16,66.62c0,0.06,0,0.12,0,0.19c-0.09,1.92-1.56,3.48-3.45,3.7c-0.07,0.01-0.21,0.02-0.21,0.02
	C83.92,72.8,74.01,82.69,71.76,95.27c-0.01,0.04-0.03,0.3-0.04,0.36c-0.17,1.84-1.61,3.31-3.43,3.53c-0.15,0.02-0.3,0.03-0.46,0.03
	c-2.16,0-3.91-1.75-3.91-3.91c0-0.14,0.03-0.47,0.07-0.7c0.01-0.04,0.01-0.09,0.02-0.13c2.65-16.13,15.4-28.93,31.51-31.66
	c0.23-0.04,0.48-0.07,0.73-0.07C98.41,62.71,100.16,64.46,100.16,66.62z M140.16,157.88l-10.74-10.74
	c-8.03,4.77-17.4,7.51-27.42,7.51v-0.04c-27.85,0-50.76-21.1-53.6-48.17h23.33c2.85,15.26,16.94,26.56,33.36,24.96
	c2.43-0.24,4.78-0.77,7.02-1.56l-10.81-10.81l16.41-16.41l11.85,11.85c1.65-3.28,2.72-6.87,3.09-10.66
	c1.58-16.46-9.8-30.58-25.14-33.35V47.14c27.15,2.76,48.34,25.71,48.34,53.62h0.04c0,11.34-3.52,21.86-9.51,30.54l10.18,10.18
	L140.16,157.88z"/>
</svg>
